<?xml version="1.0" encoding="utf-8"?>
<!-- Generator: Adobe Illustrator 27.0.1, SVG Export Plug-In . SVG Version: 6.00 Build 0)  -->
<svg version="1.1" xmlns="http://www.w3.org/2000/svg" xmlns:xlink="http://www.w3.org/1999/xlink" x="0px" y="0px"
	 viewBox="0 0 5000 5000" style="enable-background:new 0 0 5000 5000;" xml:space="preserve">
<style type="text/css">
	.st0{fill:url(#SVGID_1_);stroke:#000000;stroke-miterlimit:10;}
	.st1{fill:url(#SVGID_00000037680090173801998020000007852974215860474257_);stroke:#000000;stroke-miterlimit:10;}
	.st2{fill:url(#SVGID_00000003089640346181913410000012774566437469955752_);stroke:#000000;stroke-miterlimit:10;}
	.st3{fill:url(#SVGID_00000058584355439015367550000016956938818877585834_);stroke:#000000;stroke-miterlimit:10;}
	.st4{fill:url(#SVGID_00000088855085659834072840000005469337427057323428_);stroke:#000000;stroke-miterlimit:10;}
	.st5{fill:url(#SVGID_00000078045234187911529670000001017425621780133261_);stroke:#000000;stroke-miterlimit:10;}
	.st6{fill:url(#SVGID_00000006666865961417519830000000491120167092071572_);}
	.st7{fill:#82368C;}
	.st8{fill:url(#SVGID_00000028305522520544894210000003718353001575973783_);}
	.st9{fill:url(#SVGID_00000121966640387959136220000010100679981687405202_);}
	.st10{fill:#2D2E83;}
	.st11{fill:url(#SVGID_00000052088690473296758710000009106787558773656231_);}
	.st12{fill:url(#SVGID_00000091717488543733096520000014015563684589802902_);}
	.st13{fill:url(#SVGID_00000133510862979055166450000012386022269592356522_);}
	.st14{fill:url(#SVGID_00000060010981527352020210000009129493669598160539_);stroke:#000000;stroke-miterlimit:10;}
	.st15{fill:url(#SVGID_00000039822403811717686080000018349581095296678040_);stroke:#000000;stroke-miterlimit:10;}
	.st16{fill:url(#SVGID_00000026862606377446091880000000697226971112135556_);stroke:#000000;stroke-miterlimit:10;}
	.st17{fill:url(#SVGID_00000081644786401322249540000015889880752795963839_);stroke:#000000;stroke-miterlimit:10;}
	.st18{fill:url(#SVGID_00000057129845516835843920000016222094626395169708_);stroke:#000000;stroke-miterlimit:10;}
	.st19{fill:url(#SVGID_00000098181899678630943110000003357649850637182102_);stroke:#000000;stroke-miterlimit:10;}
	.st20{fill:url(#SVGID_00000106843956906221900730000004756738122557602458_);stroke:#000000;stroke-miterlimit:10;}
	.st21{fill:url(#SVGID_00000018938596819589133150000014265919929599772591_);stroke:#000000;stroke-miterlimit:10;}
	.st22{fill:url(#SVGID_00000085934124476694077020000005194434704896689293_);stroke:#000000;stroke-miterlimit:10;}
	.st23{fill:url(#SVGID_00000014600847849211963450000010938110090403530918_);stroke:#000000;stroke-miterlimit:10;}
	.st24{fill:url(#SVGID_00000108275835672480468500000011798474946157569197_);stroke:#000000;stroke-miterlimit:10;}
	.st25{fill:url(#SVGID_00000142134720168127037000000010640141143498595749_);stroke:#000000;stroke-miterlimit:10;}
	.st26{fill:#252957;}
	.st27{font-family:'Lato-Regular';}
	.st28{font-size:500px;}
	.st29{fill:#902D88;}
	.st30{font-family:'Lato-Light';}
	.st31{font-size:250px;}
</style>
<g id="Layer_3">
	<linearGradient id="SVGID_1_" gradientUnits="userSpaceOnUse" x1="2083.8528" y1="1568.5731" x2="2168.9763" y2="1519.4269">
		<stop  offset="0" style="stop-color:#9C2D88"/>
		<stop  offset="0.021" style="stop-color:#972E88"/>
		<stop  offset="0.1064" style="stop-color:#882F88"/>
		<stop  offset="0.2071" style="stop-color:#7B3088"/>
		<stop  offset="0.3318" style="stop-color:#723088"/>
		<stop  offset="0.5067" style="stop-color:#6C3088"/>
		<stop  offset="0.9925" style="stop-color:#6B3088"/>
	</linearGradient>
	<circle class="st0" cx="2126.41" cy="1544" r="49.14"/>
	
		<linearGradient id="SVGID_00000168103318394223511270000000294343147727827589_" gradientUnits="userSpaceOnUse" x1="2947.646" y1="1568.5731" x2="3032.7695" y2="1519.4269">
		<stop  offset="0.9975" style="stop-color:#2E3985"/>
		<stop  offset="1" style="stop-color:#283985"/>
	</linearGradient>
	
		<circle style="fill:url(#SVGID_00000168103318394223511270000000294343147727827589_);stroke:#000000;stroke-miterlimit:10;" cx="2990.21" cy="1544" r="49.14"/>
	
		<linearGradient id="SVGID_00000078008903515236897640000002641838439204699066_" gradientUnits="userSpaceOnUse" x1="1720.9218" y1="2221.1938" x2="1806.0454" y2="2172.0476">
		<stop  offset="0" style="stop-color:#9C2D88"/>
		<stop  offset="0.9159" style="stop-color:#9B2E88"/>
		<stop  offset="0.9899" style="stop-color:#9A2E88"/>
	</linearGradient>
	
		<circle style="fill:url(#SVGID_00000078008903515236897640000002641838439204699066_);stroke:#000000;stroke-miterlimit:10;" cx="1763.48" cy="2196.62" r="49.14"/>
	
		<linearGradient id="SVGID_00000097489562969309517920000011377605063232987021_" gradientUnits="userSpaceOnUse" x1="3335.0251" y1="2221.1938" x2="3420.1489" y2="2172.0476">
		<stop  offset="0.9975" style="stop-color:#2E3985"/>
		<stop  offset="1" style="stop-color:#283985"/>
	</linearGradient>
	
		<circle style="fill:url(#SVGID_00000097489562969309517920000011377605063232987021_);stroke:#000000;stroke-miterlimit:10;" cx="3377.59" cy="2196.62" r="49.14"/>
	
		<linearGradient id="SVGID_00000150792111422406327280000001307332448782209955_" gradientUnits="userSpaceOnUse" x1="2150.9875" y1="2954.6653" x2="2101.8416" y2="2869.5417">
		<stop  offset="0" style="stop-color:#9C2D88"/>
		<stop  offset="0.0608" style="stop-color:#922E88"/>
		<stop  offset="0.1661" style="stop-color:#862F88"/>
		<stop  offset="0.2973" style="stop-color:#7D2F88"/>
		<stop  offset="0.4814" style="stop-color:#783088"/>
		<stop  offset="0.9925" style="stop-color:#763088"/>
	</linearGradient>
	
		<circle style="fill:url(#SVGID_00000150792111422406327280000001307332448782209955_);stroke:#000000;stroke-miterlimit:10;" cx="2126.41" cy="2912.1" r="49.14"/>
	
		<linearGradient id="SVGID_00000116235455413622080320000002319938788666004905_" gradientUnits="userSpaceOnUse" x1="2933.8528" y1="2936.6765" x2="3018.9763" y2="2887.5303">
		<stop  offset="0.9975" style="stop-color:#2E3985"/>
		<stop  offset="1" style="stop-color:#283985"/>
	</linearGradient>
	
		<circle style="fill:url(#SVGID_00000116235455413622080320000002319938788666004905_);stroke:#000000;stroke-miterlimit:10;" cx="2976.41" cy="2912.1" r="49.14"/>
</g>
<g id="Layer_2">
	<g>
		
			<linearGradient id="SVGID_00000007419940978088127530000000418627166333357217_" gradientUnits="userSpaceOnUse" x1="2271.2302" y1="1866.6509" x2="2528.4438" y2="1718.1486">
			<stop  offset="0" style="stop-color:#9C2D88"/>
			<stop  offset="0.0633" style="stop-color:#8C3188"/>
			<stop  offset="0.1724" style="stop-color:#723588"/>
			<stop  offset="0.2904" style="stop-color:#5C3787"/>
			<stop  offset="0.4184" style="stop-color:#493886"/>
			<stop  offset="0.5613" style="stop-color:#3B3986"/>
			<stop  offset="0.7312" style="stop-color:#323985"/>
			<stop  offset="0.9975" style="stop-color:#2E3985"/>
			<stop  offset="1" style="stop-color:#283985"/>
		</linearGradient>
		<path style="fill:url(#SVGID_00000007419940978088127530000000418627166333357217_);" d="M2352.28,2007.03
			c38.76-270.7,15.89-167.52,95.12-429.26"/>
		<g>
			<path class="st7" d="M2361.92,2009.69c5.8-40.49,11.35-81.01,16.9-121.53c3.13-22.87,6.17-45.78,10.06-68.54
				c2.84-16.61,6.35-33.08,10.65-49.37c5.55-21.02,12.01-41.8,18.42-62.57c11.18-36.25,22.44-72.47,33.49-108.77
				c1.87-6.16,3.74-12.32,5.61-18.47c1.52-5.01-1.81-11.12-6.98-12.3c-5.4-1.23-10.68,1.62-12.3,6.98
				c-11.85,39.15-23.93,78.22-36.02,117.29c-6.82,22.06-13.75,44.1-19.84,66.38c-4.45,16.26-8.22,32.66-11.2,49.25
				c-3.85,21.4-6.77,42.96-9.74,64.49c-5.18,37.58-10.27,75.17-15.6,112.73c-0.9,6.37-1.81,12.74-2.72,19.11
				c-0.4,2.78-0.47,5.18,1.01,7.71c1.21,2.07,3.59,4.05,5.98,4.6C2354.35,2017.75,2361.13,2015.22,2361.92,2009.69L2361.92,2009.69z
				"/>
		</g>
	</g>
	<g>
		
			<linearGradient id="SVGID_00000096039632873437032050000008684176281312189322_" gradientUnits="userSpaceOnUse" x1="1988.5098" y1="2009.6582" x2="2299.2148" y2="2320.3633">
			<stop  offset="0.1608" style="stop-color:#9C2D88"/>
			<stop  offset="0.2968" style="stop-color:#992E88"/>
			<stop  offset="0.4466" style="stop-color:#8F3088"/>
			<stop  offset="0.603" style="stop-color:#7E3388"/>
			<stop  offset="0.764" style="stop-color:#663687"/>
			<stop  offset="0.927" style="stop-color:#433886"/>
			<stop  offset="0.9975" style="stop-color:#2E3985"/>
		</linearGradient>
		<path style="fill:url(#SVGID_00000096039632873437032050000008684176281312189322_);" d="M2296.73,2322.85
			c-201.16-185.25-129.07-107.97-299.92-321.49"/>
		<g>
			<path class="st7" d="M2303.8,2315.78c-17.19-15.83-34.43-31.62-51.7-47.37c-12.91-11.77-25.85-23.52-38.77-35.28
				c-9.67-8.8-19.34-17.59-28.94-26.47c-7.42-6.86-14.8-13.76-22.04-20.81c-6.05-5.89-12.01-11.87-17.81-18.01
				c-5.72-6.06-11.29-12.27-16.72-18.58c-6.23-7.24-12.31-14.61-18.32-22.03c-7.69-9.49-15.28-19.05-22.86-28.63
				c-10.14-12.81-20.26-25.65-30.4-38.47c-13.5-17.06-27.02-34.1-40.59-51.11c-3.92-4.91-7.84-9.82-11.76-14.72
				c-1.5-1.87-4.79-2.93-7.07-2.93c-2.45,0-5.38,1.09-7.07,2.93c-1.75,1.91-3.05,4.41-2.93,7.07c0.13,2.81,1.18,4.89,2.93,7.07
				c14.6,18.25,29.16,36.54,43.67,54.86c10.85,13.7,21.67,27.42,32.51,41.12c8.1,10.26,16.21,20.51,24.4,30.7
				c6.33,7.88,12.71,15.72,19.23,23.43c5.45,6.45,11.01,12.8,16.74,19.01c5.65,6.13,11.46,12.11,17.38,17.97
				c6.79,6.72,13.72,13.29,20.71,19.81c8.93,8.33,17.95,16.56,26.98,24.79c12.08,11.01,24.18,21.99,36.27,32.99
				c16.09,14.65,32.15,29.32,48.17,44.04c4.63,4.25,9.25,8.5,13.87,12.76c3.85,3.54,10.39,4.09,14.14,0
				C2307.34,2326.06,2307.91,2319.56,2303.8,2315.78L2303.8,2315.78z"/>
		</g>
	</g>
	<g>
		
			<linearGradient id="SVGID_00000134927887324732224790000013667772033291834531_" gradientUnits="userSpaceOnUse" x1="2993.6802" y1="2341.1096" x2="3081.9763" y2="2290.1318">
			<stop  offset="0" style="stop-color:#9C2D88"/>
			<stop  offset="0.0305" style="stop-color:#982E88"/>
			<stop  offset="0.3542" style="stop-color:#703587"/>
			<stop  offset="0.6348" style="stop-color:#4F3886"/>
			<stop  offset="0.8585" style="stop-color:#383985"/>
			<stop  offset="0.9975" style="stop-color:#2E3985"/>
			<stop  offset="1" style="stop-color:#283985"/>
		</linearGradient>
		<path style="fill:url(#SVGID_00000134927887324732224790000013667772033291834531_);" d="M2886.76,2155.92
			c202.44,183.85,129.81,107.07,302.14,319.41"/>
		<g>
			<path class="st10" d="M2879.69,2162.99c17.32,15.73,34.67,31.41,52.07,47.05c12.96,11.65,25.94,23.28,38.91,34.92
				c9.77,8.77,19.55,17.54,29.25,26.39c7.42,6.76,14.8,13.57,22.04,20.52c6.15,5.89,12.2,11.89,18.08,18.04
				c5.72,5.98,11.29,12.11,16.74,18.35c6.31,7.23,12.47,14.6,18.56,22.01c7.73,9.41,15.37,18.9,23,28.4
				c10.24,12.76,20.46,25.53,30.69,38.29c13.57,16.92,27.17,33.81,40.82,50.67c3.99,4.92,7.97,9.85,11.97,14.77
				c1.52,1.87,4.77,2.93,7.07,2.93c2.45,0,5.38-1.09,7.07-2.93c1.75-1.91,3.05-4.41,2.93-7.07c-0.13-2.8-1.17-4.9-2.93-7.07
				c-14.74-18.16-29.43-36.36-44.08-54.6c-10.91-13.59-21.8-27.19-32.7-40.79c-8.21-10.25-16.43-20.49-24.72-30.67
				c-6.34-7.78-12.73-15.53-19.27-23.15c-5.54-6.47-11.19-12.84-17.01-19.06c-5.66-6.05-11.47-11.95-17.39-17.73
				c-6.87-6.7-13.88-13.26-20.95-19.76c-8.97-8.25-18.02-16.4-27.08-24.54c-12.17-10.93-24.36-21.84-36.53-32.77
				c-16.14-14.49-32.25-29.01-48.33-43.57c-4.7-4.25-9.39-8.51-14.08-12.77c-3.87-3.52-10.37-4.11-14.14,0
				C2876.17,2152.68,2875.55,2159.23,2879.69,2162.99L2879.69,2162.99z"/>
		</g>
	</g>
	<g>
		
			<linearGradient id="SVGID_00000092450592660331612640000005589904880796423086_" gradientUnits="userSpaceOnUse" x1="2565.0874" y1="2783.1545" x2="2852.7412" y2="2617.0776">
			<stop  offset="0" style="stop-color:#9C2D88"/>
			<stop  offset="0.0305" style="stop-color:#982E88"/>
			<stop  offset="0.3542" style="stop-color:#703587"/>
			<stop  offset="0.6348" style="stop-color:#4F3886"/>
			<stop  offset="0.8585" style="stop-color:#383985"/>
			<stop  offset="0.9975" style="stop-color:#2E3985"/>
			<stop  offset="1" style="stop-color:#283985"/>
		</linearGradient>
		<path style="fill:url(#SVGID_00000092450592660331612640000005589904880796423086_);" d="M2780.72,2492.34
			c-69.48,264.49-34.96,164.6-143.62,415.55"/>
		<g>
			<path class="st10" d="M2771.08,2489.68c-5.91,22.49-11.76,44.99-17.55,67.51c-4.37,16.99-8.72,33.99-13.07,50.98
				c-3.24,12.65-6.48,25.3-9.83,37.92c-2.59,9.77-5.23,19.53-8.06,29.23c-2.37,8.12-4.87,16.21-7.59,24.22
				c-2.67,7.88-5.54,15.69-8.57,23.45c-1.65,4.23-3.35,8.44-5.07,12.64c-0.92,2.24-1.85,4.47-2.78,6.7
				c-0.23,0.55-0.46,1.11-0.7,1.66c-0.12,0.28-0.24,0.56-0.35,0.84c-0.5,1.18,1.14-2.69,0.47-1.12c-0.51,1.2-1.02,2.4-1.52,3.59
				c-4.8,11.27-9.71,22.5-14.64,33.72c-6.53,14.87-13.1,29.74-19.64,44.61c-8.78,19.96-17.52,39.94-26.21,59.94
				c-2.5,5.76-5,11.51-7.49,17.27c-1.11,2.56-1.78,4.89-1.01,7.71c0.64,2.32,2.43,4.83,4.6,5.98c4.31,2.28,11.46,1.54,13.68-3.59
				c9.28-21.43,18.61-42.83,28-64.22c7.04-16.04,14.11-32.07,21.17-48.1c5.28-11.99,10.55-23.97,15.73-36
				c4.28-9.93,8.5-19.89,12.53-29.93c3.17-7.89,6.21-15.84,9.04-23.86c2.77-7.85,5.33-15.77,7.74-23.74
				c2.76-9.16,5.33-18.38,7.82-27.62c3.18-11.81,6.24-23.66,9.29-35.51c4.06-15.8,8.09-31.61,12.15-47.42
				c5.42-21.12,10.88-42.23,16.39-63.33c1.59-6.07,3.18-12.14,4.77-18.21c1.33-5.05-1.68-11.09-6.98-12.3
				C2778.15,2481.51,2772.5,2484.27,2771.08,2489.68L2771.08,2489.68z"/>
		</g>
	</g>
	<g>
		
			<linearGradient id="SVGID_00000101086658815504653580000015348234329173233296_" gradientUnits="userSpaceOnUse" x1="2137.8093" y1="2472.4529" x2="2342.606" y2="2677.2493">
			<stop  offset="0.0101" style="stop-color:#9C2D88"/>
			<stop  offset="0.0888" style="stop-color:#8F3088"/>
			<stop  offset="0.2834" style="stop-color:#703588"/>
			<stop  offset="0.4752" style="stop-color:#563787"/>
			<stop  offset="0.6611" style="stop-color:#423886"/>
			<stop  offset="0.8382" style="stop-color:#343985"/>
			<stop  offset="0.9975" style="stop-color:#2E3985"/>
		</linearGradient>
		<path style="fill:url(#SVGID_00000101086658815504653580000015348234329173233296_);" d="M2459.56,2560.3
			c-270.71,38.74-165.25,31.74-438.7,29.11"/>
		<g>
			<path class="st7" d="M2456.9,2550.65c-40.49,5.8-80.95,11.83-121.4,17.87c-12.9,1.93-25.79,3.85-38.7,5.67
				c-2.71,0.38-5.42,0.76-8.14,1.13c-0.57,0.08-1.14,0.15-1.7,0.23c-0.34,0.05-0.67,0.09-1.01,0.14c-1.59,0.22,2.91-0.39,1.32-0.18
				c-1.31,0.17-2.62,0.35-3.93,0.52c-4.69,0.61-9.38,1.2-14.08,1.74c-16.65,1.92-33.34,3.16-50.09,3.59
				c-21.73,0.57-43.49,0.2-65.22-0.13c-37.93-0.56-75.86-1.21-113.79-1.63c-6.43-0.07-12.87-0.14-19.3-0.2
				c-5.23-0.05-10.24,4.64-10,10c0.24,5.46,4.39,9.95,10,10c40.9,0.39,81.8,1.03,122.7,1.67c23.18,0.36,46.38,0.83,69.56,0.42
				c16.75-0.3,33.47-1.28,50.13-3.06c22.51-2.4,44.91-5.78,67.29-9.1c37.52-5.57,75.03-11.23,112.57-16.65
				c6.37-0.92,12.74-1.84,19.11-2.75c2.3-0.33,4.86-2.69,5.98-4.6c1.25-2.14,1.79-5.3,1.01-7.71c-0.78-2.42-2.28-4.75-4.6-5.98
				C2462.06,2550.32,2459.72,2550.25,2456.9,2550.65L2456.9,2550.65z"/>
		</g>
	</g>
	<g>
		
			<linearGradient id="SVGID_00000126324447823670572950000015655554042487032755_" gradientUnits="userSpaceOnUse" x1="2674.6904" y1="1894.6489" x2="3111.9324" y2="1894.6489">
			<stop  offset="0.9975" style="stop-color:#2E3985"/>
			<stop  offset="0.9979" style="stop-color:#2B3985"/>
			<stop  offset="1" style="stop-color:#283985"/>
		</linearGradient>
		<path style="fill:url(#SVGID_00000126324447823670572950000015655554042487032755_);" d="M2674.69,1917.71
			c269-49.22,163.89-38.13,437.24-46.13"/>
		<g>
			<path class="st10" d="M2677.35,1927.35c40.15-7.35,80.25-14.93,120.35-22.52c22.76-4.31,45.52-8.72,68.41-12.28
				c4.26-0.66,8.52-1.28,12.79-1.87c1.44-0.2-3.03,0.4-1.58,0.21c0.27-0.04,0.54-0.07,0.8-0.11c0.49-0.06,0.98-0.13,1.47-0.19
				c1.1-0.14,2.21-0.28,3.31-0.42c2.01-0.25,4.02-0.48,6.04-0.71c8.26-0.92,16.55-1.62,24.85-2.16c21.63-1.41,43.31-1.88,64.98-2.4
				c38.01-0.91,76.02-1.74,114.03-2.8c6.38-0.18,12.76-0.36,19.14-0.55c5.22-0.15,10.25-4.49,10-10c-0.24-5.29-4.4-10.16-10-10
				c-40.96,1.2-81.92,2.15-122.88,3.1c-23.09,0.53-46.21,0.97-69.28,2.28c-17.58,0.99-35.06,2.79-52.48,5.33
				c-21.54,3.14-42.94,7.23-64.32,11.25c-37.37,7.04-74.71,14.16-112.11,21.06c-6.28,1.16-12.55,2.31-18.83,3.46
				c-5.16,0.94-8.55,7.48-6.98,12.3C2666.84,1925.9,2671.82,1928.37,2677.35,1927.35L2677.35,1927.35z"/>
		</g>
	</g>
</g>
<g id="Layer_1">
	
		<linearGradient id="SVGID_00000106134598764862371820000008131092263471247505_" gradientUnits="userSpaceOnUse" x1="2736.772" y1="1440.9656" x2="2379.8503" y2="1647.0344">
		<stop  offset="0" style="stop-color:#283985"/>
		<stop  offset="2.512563e-03" style="stop-color:#463187"/>
		<stop  offset="0.5238" style="stop-color:#483187"/>
		<stop  offset="0.7115" style="stop-color:#4E3188"/>
		<stop  offset="0.8453" style="stop-color:#583188"/>
		<stop  offset="0.9528" style="stop-color:#663088"/>
		<stop  offset="1" style="stop-color:#6E3088"/>
	</linearGradient>
	
		<circle style="fill:url(#SVGID_00000106134598764862371820000008131092263471247505_);stroke:#000000;stroke-miterlimit:10;" cx="2558.31" cy="1544" r="206.03"/>
	
		<linearGradient id="SVGID_00000009550836893509732600000007161261239946559919_" gradientUnits="userSpaceOnUse" x1="3402.2766" y1="1871.5862" x2="2990.2078" y2="1871.5862">
		<stop  offset="2.512563e-03" style="stop-color:#2E3985"/>
		<stop  offset="1" style="stop-color:#2F3985"/>
	</linearGradient>
	
		<circle style="fill:url(#SVGID_00000009550836893509732600000007161261239946559919_);stroke:#000000;stroke-miterlimit:10;" cx="3196.24" cy="1871.59" r="206.03"/>
	
		<linearGradient id="SVGID_00000180339948100455787640000000040112584825309614_" gradientUnits="userSpaceOnUse" x1="3003.9883" y1="2624.6897" x2="3360.9099" y2="2418.6208">
		<stop  offset="0.9975" style="stop-color:#2E3985"/>
		<stop  offset="1" style="stop-color:#283985"/>
	</linearGradient>
	
		<circle style="fill:url(#SVGID_00000180339948100455787640000000040112584825309614_);stroke:#000000;stroke-miterlimit:10;" cx="3182.45" cy="2521.66" r="206.03"/>
	
		<linearGradient id="SVGID_00000150080339441394468690000005107979974532967342_" gradientUnits="userSpaceOnUse" x1="2736.772" y1="3064.2759" x2="2379.8503" y2="2858.207">
		<stop  offset="0" style="stop-color:#2B3A84"/>
		<stop  offset="0.4304" style="stop-color:#383785"/>
		<stop  offset="1" style="stop-color:#4D3088"/>
	</linearGradient>
	
		<circle style="fill:url(#SVGID_00000150080339441394468690000005107979974532967342_);stroke:#000000;stroke-miterlimit:10;" cx="2558.31" cy="2961.24" r="206.03"/>
	
		<radialGradient id="SVGID_00000060716627024841374090000005693891018793599655_" cx="1903.1387" cy="2494.0688" r="265.1635" gradientTransform="matrix(-0.866 -0.5 4.5 -7.7942 -7672.0054 22884.9824)" gradientUnits="userSpaceOnUse">
		<stop  offset="0" style="stop-color:#9C2D88"/>
		<stop  offset="0.3334" style="stop-color:#9A2E88"/>
		<stop  offset="0.5712" style="stop-color:#942E88"/>
		<stop  offset="0.7793" style="stop-color:#882E88"/>
		<stop  offset="0.9693" style="stop-color:#772F88"/>
		<stop  offset="1" style="stop-color:#742F88"/>
	</radialGradient>
	
		<circle style="fill:url(#SVGID_00000060716627024841374090000005693891018793599655_);stroke:#000000;stroke-miterlimit:10;" cx="1920.38" cy="2521.66" r="206.03"/>
	
		<radialGradient id="SVGID_00000173143402820416218090000014950735204727435440_" cx="1798.0414" cy="1872.7748" r="228.5731" fx="2026.6001" fy="1870.2126" gradientTransform="matrix(-0.6549 0.7558 6.046 5.2388 -8225.0391 -9298.4492)" gradientUnits="userSpaceOnUse">
		<stop  offset="0.0377" style="stop-color:#9C2D88"/>
		<stop  offset="0.4603" style="stop-color:#9B2E88"/>
		<stop  offset="0.6125" style="stop-color:#962E88"/>
		<stop  offset="0.721" style="stop-color:#8D2F88"/>
		<stop  offset="0.8087" style="stop-color:#803088"/>
		<stop  offset="0.8838" style="stop-color:#6F3087"/>
		<stop  offset="0.9491" style="stop-color:#5A3187"/>
		<stop  offset="1" style="stop-color:#433186"/>
	</radialGradient>
	
		<circle style="fill:url(#SVGID_00000173143402820416218090000014950735204727435440_);stroke:#000000;stroke-miterlimit:10;" cx="1920.38" cy="1871.59" r="206.03"/>
	
		<linearGradient id="SVGID_00000059296342914062465410000000428702998654735033_" gradientUnits="userSpaceOnUse" x1="2240.2078" y1="2036.2413" x2="2452.2766" y2="2036.2413">
		<stop  offset="0" style="stop-color:#9C2D88"/>
		<stop  offset="0.046" style="stop-color:#972E88"/>
		<stop  offset="0.2101" style="stop-color:#882F88"/>
		<stop  offset="0.3967" style="stop-color:#7D2F88"/>
		<stop  offset="0.6231" style="stop-color:#773088"/>
		<stop  offset="1" style="stop-color:#753088"/>
	</linearGradient>
	
		<circle style="fill:url(#SVGID_00000059296342914062465410000000428702998654735033_);stroke:#000000;stroke-miterlimit:10;" cx="2346.24" cy="2036.24" r="106.03"/>
	
		<linearGradient id="SVGID_00000003794202272698151150000003533884121727386040_" gradientUnits="userSpaceOnUse" x1="2552.6741" y1="1983.233" x2="2736.3618" y2="1877.1808">
		<stop  offset="0" style="stop-color:#4F3087"/>
		<stop  offset="0.3806" style="stop-color:#4C3187"/>
		<stop  offset="0.7121" style="stop-color:#413586"/>
		<stop  offset="0.9975" style="stop-color:#2E3985"/>
		<stop  offset="1" style="stop-color:#283985"/>
	</linearGradient>
	
		<circle style="fill:url(#SVGID_00000003794202272698151150000003533884121727386040_);stroke:#000000;stroke-miterlimit:10;" cx="2644.52" cy="1930.21" r="106.03"/>
	
		<linearGradient id="SVGID_00000082335565249238125080000009202305029527864238_" gradientUnits="userSpaceOnUse" x1="2231.2991" y1="2254.436" x2="2381.2544" y2="2404.3916">
		<stop  offset="0" style="stop-color:#992E88"/>
		<stop  offset="0.1649" style="stop-color:#8E2E88"/>
		<stop  offset="0.4301" style="stop-color:#802F88"/>
		<stop  offset="0.7039" style="stop-color:#772F88"/>
		<stop  offset="0.9975" style="stop-color:#743088"/>
	</linearGradient>
	
		<circle style="fill:url(#SVGID_00000082335565249238125080000009202305029527864238_);stroke:#000000;stroke-miterlimit:10;" cx="2306.28" cy="2329.41" r="106.03"/>
	
		<linearGradient id="SVGID_00000123410938659477915650000002215696373384948149_" gradientUnits="userSpaceOnUse" x1="2457.3801" y1="2453.8159" x2="2529.9319" y2="2653.1497">
		<stop  offset="0.0187" style="stop-color:#9C2D88"/>
		<stop  offset="0.6548" style="stop-color:#673688"/>
		<stop  offset="0.9975" style="stop-color:#4A3888"/>
	</linearGradient>
	
		<circle style="fill:url(#SVGID_00000123410938659477915650000002215696373384948149_);stroke:#000000;stroke-miterlimit:10;" cx="2493.66" cy="2553.48" r="106.03"/>
	
		<linearGradient id="SVGID_00000003078411557811252820000017874699889876998293_" gradientUnits="userSpaceOnUse" x1="2778.5361" y1="2215.1296" x2="2962.2239" y2="2109.0774">
		<stop  offset="0" style="stop-color:#453389"/>
		<stop  offset="0.5061" style="stop-color:#433488"/>
		<stop  offset="0.8197" style="stop-color:#3A3787"/>
		<stop  offset="0.9975" style="stop-color:#2E3985"/>
	</linearGradient>
	
		<circle style="fill:url(#SVGID_00000003078411557811252820000017874699889876998293_);stroke:#000000;stroke-miterlimit:10;" cx="2870.38" cy="2162.1" r="106.03"/>
	
		<linearGradient id="SVGID_00000166649766792873552780000015172307737719193255_" gradientUnits="userSpaceOnUse" x1="2886.7595" y1="2469.9312" x2="2674.6904" y2="2469.9312">
		<stop  offset="0" style="stop-color:#2B3A84"/>
		<stop  offset="1" style="stop-color:#503088"/>
	</linearGradient>
	
		<circle style="fill:url(#SVGID_00000166649766792873552780000015172307737719193255_);stroke:#000000;stroke-miterlimit:10;" cx="2780.72" cy="2469.93" r="106.03"/>
</g>
<g id="Layer_6">
	<text transform="matrix(1 0 0 1 639.1455 3742.2219)" class="st26 st27 st28">CARECONNECT</text>
	<text transform="matrix(1 0 0 1 1836.9465 4032.6052)" class="st29 st30 st31">SOFTWARE</text>
</g>
</svg>
