<?xml version="1.0" encoding="UTF-8"?>
<svg xmlns="http://www.w3.org/2000/svg" xmlns:xlink="http://www.w3.org/1999/xlink" viewBox="0 0 3899.47 2826.39">
  <defs>
    <style>
      .cls-1 {
        fill: url(#linear-gradient-20);
      }

      .cls-1, .cls-2, .cls-3, .cls-4, .cls-5, .cls-6, .cls-7, .cls-8, .cls-9, .cls-10, .cls-11, .cls-12, .cls-13, .cls-14, .cls-15, .cls-16, .cls-17, .cls-18 {
        stroke: #1d1d1b;
        stroke-miterlimit: 10;
      }

      .cls-2 {
        fill: url(#linear-gradient-17);
      }

      .cls-3 {
        fill: url(#linear-gradient-14);
      }

      .cls-19 {
        fill: #2d2e83;
      }

      .cls-4 {
        fill: url(#linear-gradient-16);
      }

      .cls-20 {
        fill: url(#linear-gradient-11);
      }

      .cls-5 {
        fill: url(#linear-gradient-13);
      }

      .cls-6 {
        fill: url(#linear-gradient-6);
      }

      .cls-7 {
        fill: url(#radial-gradient);
      }

      .cls-21 {
        fill: url(#linear-gradient-10);
      }

      .cls-22 {
        letter-spacing: -.04em;
      }

      .cls-23 {
        fill: #902d88;
        font-family: Montserrat-Light, Montserrat;
        font-size: 250px;
        font-weight: 300;
      }

      .cls-24 {
        fill: #82368c;
      }

      .cls-8 {
        fill: url(#linear-gradient);
      }

      .cls-9 {
        fill: url(#linear-gradient-18);
      }

      .cls-25 {
        letter-spacing: -.02em;
      }

      .cls-26 {
        fill: url(#linear-gradient-7);
      }

      .cls-10 {
        fill: url(#linear-gradient-15);
      }

      .cls-11 {
        fill: url(#linear-gradient-2);
      }

      .cls-12 {
        fill: url(#linear-gradient-3);
      }

      .cls-13 {
        fill: url(#linear-gradient-22);
      }

      .cls-14 {
        fill: url(#linear-gradient-4);
      }

      .cls-27 {
        fill: url(#linear-gradient-9);
      }

      .cls-15 {
        fill: url(#linear-gradient-19);
      }

      .cls-16 {
        fill: url(#linear-gradient-21);
      }

      .cls-17 {
        fill: url(#radial-gradient-2);
      }

      .cls-28 {
        fill: #252957;
        font-family: Montserrat-Regular, Montserrat;
        font-size: 500px;
      }

      .cls-29 {
        letter-spacing: 0em;
      }

      .cls-30 {
        fill: url(#linear-gradient-8);
      }

      .cls-31 {
        fill: url(#linear-gradient-12);
      }

      .cls-18 {
        fill: url(#linear-gradient-5);
      }
    </style>
    <linearGradient id="linear-gradient" x1="1540.59" y1="231.11" x2="1625.71" y2="181.96" gradientUnits="userSpaceOnUse">
      <stop offset="0" stop-color="#9c2d88"/>
      <stop offset=".05" stop-color="#902d88"/>
      <stop offset=".16" stop-color="#7f2e88"/>
      <stop offset=".29" stop-color="#732f88"/>
      <stop offset=".48" stop-color="#6c2f88"/>
      <stop offset=".99" stop-color="#6b3088"/>
    </linearGradient>
    <linearGradient id="linear-gradient-2" x1="2404.38" y1="231.11" x2="2489.5" y2="181.96" gradientUnits="userSpaceOnUse">
      <stop offset="1" stop-color="#2e3985"/>
      <stop offset="1" stop-color="#283985"/>
    </linearGradient>
    <linearGradient id="linear-gradient-3" x1="1177.66" y1="883.73" x2="1262.78" y2="834.58" gradientUnits="userSpaceOnUse">
      <stop offset="0" stop-color="#9c2d88"/>
      <stop offset=".99" stop-color="#9a2d88"/>
      <stop offset=".99" stop-color="#9a2e88"/>
    </linearGradient>
    <linearGradient id="linear-gradient-4" x1="2791.76" y1="883.73" x2="2876.88" y2="834.58" gradientUnits="userSpaceOnUse">
      <stop offset="1" stop-color="#2e3985"/>
      <stop offset="1" stop-color="#283985"/>
    </linearGradient>
    <linearGradient id="linear-gradient-5" x1="1607.72" y1="1617.2" x2="1558.57" y2="1532.08" gradientUnits="userSpaceOnUse">
      <stop offset="0" stop-color="#9c2d88"/>
      <stop offset="0" stop-color="#9b2d88"/>
      <stop offset=".12" stop-color="#8a2e88"/>
      <stop offset=".26" stop-color="#7e2f88"/>
      <stop offset=".45" stop-color="#772f88"/>
      <stop offset=".99" stop-color="#763088"/>
    </linearGradient>
    <linearGradient id="linear-gradient-6" x1="2390.59" y1="1599.21" x2="2475.71" y2="1550.06" gradientUnits="userSpaceOnUse">
      <stop offset="1" stop-color="#2e3985"/>
      <stop offset="1" stop-color="#283985"/>
    </linearGradient>
    <linearGradient id="linear-gradient-7" x1="1727.96" y1="529.19" x2="1985.18" y2="380.68" gradientUnits="userSpaceOnUse">
      <stop offset="0" stop-color="#9c2d88"/>
      <stop offset=".01" stop-color="#982d87"/>
      <stop offset=".13" stop-color="#773087"/>
      <stop offset=".25" stop-color="#5c3386"/>
      <stop offset=".39" stop-color="#483685"/>
      <stop offset=".54" stop-color="#393785"/>
      <stop offset=".72" stop-color="#303885"/>
      <stop offset="1" stop-color="#2e3985"/>
      <stop offset="1" stop-color="#283985"/>
    </linearGradient>
    <linearGradient id="linear-gradient-8" x1="1445.24" y1="672.19" x2="1755.95" y2="982.9" gradientUnits="userSpaceOnUse">
      <stop offset=".16" stop-color="#9c2d88"/>
      <stop offset=".31" stop-color="#972d87"/>
      <stop offset=".47" stop-color="#8a2e87"/>
      <stop offset=".64" stop-color="#743186"/>
      <stop offset=".82" stop-color="#553486"/>
      <stop offset="1" stop-color="#2e3985"/>
    </linearGradient>
    <linearGradient id="linear-gradient-9" x1="2450.41" y1="1003.64" x2="2538.71" y2="952.67" gradientUnits="userSpaceOnUse">
      <stop offset="0" stop-color="#9c2d88"/>
      <stop offset=".28" stop-color="#743186"/>
      <stop offset=".59" stop-color="#4e3585"/>
      <stop offset=".84" stop-color="#363885"/>
      <stop offset="1" stop-color="#2e3985"/>
      <stop offset="1" stop-color="#283985"/>
    </linearGradient>
    <linearGradient id="linear-gradient-10" x1="2021.82" y1="1445.69" x2="2309.47" y2="1279.61" xlink:href="#linear-gradient-9"/>
    <linearGradient id="linear-gradient-11" x1="1594.54" y1="1134.99" x2="1799.34" y2="1339.78" gradientUnits="userSpaceOnUse">
      <stop offset=".01" stop-color="#9c2d88"/>
      <stop offset=".22" stop-color="#753186"/>
      <stop offset=".43" stop-color="#563486"/>
      <stop offset=".63" stop-color="#3f3785"/>
      <stop offset=".82" stop-color="#323885"/>
      <stop offset="1" stop-color="#2e3985"/>
    </linearGradient>
    <linearGradient id="linear-gradient-12" x1="2131.42" y1="557.18" x2="2568.67" y2="557.18" gradientUnits="userSpaceOnUse">
      <stop offset="1" stop-color="#2e3985"/>
      <stop offset="1" stop-color="#293985"/>
      <stop offset="1" stop-color="#283985"/>
    </linearGradient>
    <linearGradient id="linear-gradient-13" x1="2193.51" y1="103.5" x2="1836.58" y2="309.57" gradientUnits="userSpaceOnUse">
      <stop offset="0" stop-color="#283985"/>
      <stop offset="0" stop-color="#463187"/>
      <stop offset=".54" stop-color="#473087"/>
      <stop offset=".74" stop-color="#4e3087"/>
      <stop offset=".87" stop-color="#5a3087"/>
      <stop offset=".99" stop-color="#6b3087"/>
      <stop offset="1" stop-color="#6e3088"/>
    </linearGradient>
    <linearGradient id="linear-gradient-14" x1="2859.01" y1="534.12" x2="2446.94" y2="534.12" gradientUnits="userSpaceOnUse">
      <stop offset="0" stop-color="#2e3985"/>
      <stop offset="1" stop-color="#2f3985"/>
    </linearGradient>
    <linearGradient id="linear-gradient-15" x1="2460.72" y1="1287.22" x2="2817.64" y2="1081.16" gradientUnits="userSpaceOnUse">
      <stop offset="1" stop-color="#2e3985"/>
      <stop offset="1" stop-color="#283985"/>
    </linearGradient>
    <linearGradient id="linear-gradient-16" x1="2193.51" y1="1726.81" x2="1836.58" y2="1520.74" gradientUnits="userSpaceOnUse">
      <stop offset="0" stop-color="#2b3a84"/>
      <stop offset=".39" stop-color="#343785"/>
      <stop offset="1" stop-color="#4d3088"/>
    </linearGradient>
    <radialGradient id="radial-gradient" cx="1359.87" cy="1156.6" fx="1359.87" fy="1156.6" r="265.16" gradientTransform="translate(-2667.16 10851.37) rotate(-150) scale(1 9)" gradientUnits="userSpaceOnUse">
      <stop offset="0" stop-color="#9c2d88"/>
      <stop offset=".37" stop-color="#992d88"/>
      <stop offset=".64" stop-color="#8f2d88"/>
      <stop offset=".87" stop-color="#802e88"/>
      <stop offset="1" stop-color="#742f88"/>
    </radialGradient>
    <radialGradient id="radial-gradient-2" cx="1254.77" cy="535.31" fx="1483.33" fy="535.31" r="228.57" gradientTransform="translate(-1037.69 -3218.58) rotate(130.91) scale(1 -8)" gradientUnits="userSpaceOnUse">
      <stop offset=".04" stop-color="#9c2d88"/>
      <stop offset=".48" stop-color="#9a2d87"/>
      <stop offset=".64" stop-color="#932d87"/>
      <stop offset=".75" stop-color="#872d87"/>
      <stop offset=".85" stop-color="#762e87"/>
      <stop offset=".92" stop-color="#602f86"/>
      <stop offset=".99" stop-color="#463086"/>
      <stop offset="1" stop-color="#433186"/>
    </radialGradient>
    <linearGradient id="linear-gradient-17" x1="1696.94" y1="698.78" x2="1909.01" y2="698.78" gradientUnits="userSpaceOnUse">
      <stop offset="0" stop-color="#9c2d88"/>
      <stop offset=".13" stop-color="#8e2e88"/>
      <stop offset=".34" stop-color="#7f2f88"/>
      <stop offset=".59" stop-color="#772f88"/>
      <stop offset="1" stop-color="#753088"/>
    </linearGradient>
    <linearGradient id="linear-gradient-18" x1="2009.41" y1="645.77" x2="2193.1" y2="539.72" gradientUnits="userSpaceOnUse">
      <stop offset="0" stop-color="#4f3087"/>
      <stop offset=".36" stop-color="#4b3086"/>
      <stop offset=".68" stop-color="#403386"/>
      <stop offset=".98" stop-color="#2f3885"/>
      <stop offset="1" stop-color="#2e3985"/>
      <stop offset="1" stop-color="#283985"/>
    </linearGradient>
    <linearGradient id="linear-gradient-19" x1="1688.03" y1="916.97" x2="1837.99" y2="1066.93" gradientUnits="userSpaceOnUse">
      <stop offset="0" stop-color="#992e88"/>
      <stop offset=".04" stop-color="#952e88"/>
      <stop offset=".35" stop-color="#822f88"/>
      <stop offset=".66" stop-color="#772f88"/>
      <stop offset="1" stop-color="#743088"/>
    </linearGradient>
    <linearGradient id="linear-gradient-20" x1="1914.11" y1="1116.35" x2="1986.67" y2="1315.68" gradientUnits="userSpaceOnUse">
      <stop offset=".02" stop-color="#9c2d88"/>
      <stop offset=".58" stop-color="#6a3388"/>
      <stop offset="1" stop-color="#4a3888"/>
    </linearGradient>
    <linearGradient id="linear-gradient-21" x1="2235.27" y1="877.66" x2="2418.96" y2="771.61" gradientUnits="userSpaceOnUse">
      <stop offset="0" stop-color="#453389"/>
      <stop offset=".48" stop-color="#423388"/>
      <stop offset=".78" stop-color="#393587"/>
      <stop offset="1" stop-color="#2e3985"/>
    </linearGradient>
    <linearGradient id="linear-gradient-22" x1="2343.49" y1="1132.47" x2="2131.42" y2="1132.47" gradientUnits="userSpaceOnUse">
      <stop offset="0" stop-color="#2b3a84"/>
      <stop offset="1" stop-color="#503088"/>
    </linearGradient>
  </defs>
  <g id="Layer_3" data-name="Layer 3">
    <circle class="cls-8" cx="1583.15" cy="206.53" r="49.14"/>
    <circle class="cls-11" cx="2446.94" cy="206.53" r="49.14"/>
    <circle class="cls-12" cx="1220.22" cy="859.16" r="49.14"/>
    <circle class="cls-14" cx="2834.32" cy="859.16" r="49.14"/>
    <circle class="cls-18" cx="1583.15" cy="1574.64" r="49.14"/>
    <circle class="cls-6" cx="2433.15" cy="1574.64" r="49.14"/>
  </g>
  <g id="Layer_2" data-name="Layer 2">
    <g>
      <path class="cls-26" d="M1809.01,669.56c38.76-270.7,15.89-167.52,95.12-429.26"/>
      <path class="cls-24" d="M1818.65,672.22c5.8-40.49,11.35-81.01,16.9-121.53,3.13-22.87,6.17-45.78,10.06-68.54,2.84-16.61,6.35-33.08,10.65-49.37,5.55-21.02,12.01-41.8,18.42-62.57,11.18-36.25,22.44-72.47,33.49-108.77,1.87-6.16,3.74-12.32,5.61-18.47,1.52-5.01-1.81-11.12-6.98-12.3s-10.68,1.62-12.3,6.98c-11.85,39.15-23.93,78.22-36.02,117.29-6.82,22.06-13.75,44.1-19.84,66.38-4.45,16.26-8.22,32.66-11.2,49.25-3.85,21.4-6.77,42.96-9.74,64.49-5.18,37.58-10.27,75.17-15.6,112.73-.9,6.37-1.81,12.74-2.72,19.11-.4,2.78-.47,5.18,1.01,7.71,1.21,2.07,3.59,4.05,5.98,4.6,4.73,1.08,11.51-1.45,12.3-6.98h0Z"/>
    </g>
    <g>
      <path class="cls-30" d="M1753.46,985.38c-201.16-185.25-129.07-107.97-299.92-321.49"/>
      <path class="cls-24" d="M1760.53,978.31c-17.19-15.83-34.43-31.62-51.7-47.37-12.91-11.77-25.85-23.52-38.77-35.28-9.67-8.8-19.34-17.59-28.94-26.47-7.42-6.86-14.8-13.76-22.04-20.81-6.05-5.89-12.01-11.87-17.81-18.01-5.72-6.06-11.29-12.27-16.72-18.58-6.23-7.24-12.31-14.61-18.32-22.03-7.69-9.49-15.28-19.05-22.86-28.63-10.14-12.81-20.26-25.65-30.4-38.47-13.5-17.06-27.02-34.1-40.59-51.11-3.92-4.91-7.84-9.82-11.76-14.72-1.5-1.87-4.79-2.93-7.07-2.93-2.45,0-5.38,1.09-7.07,2.93s-3.05,4.41-2.93,7.07c.13,2.81,1.18,4.89,2.93,7.07,14.6,18.25,29.16,36.54,43.67,54.86,10.85,13.7,21.67,27.42,32.5,41.12,8.1,10.26,16.21,20.51,24.4,30.7,6.33,7.88,12.71,15.72,19.23,23.43,5.45,6.45,11.01,12.8,16.74,19.01s11.46,12.11,17.38,17.97c6.79,6.72,13.72,13.29,20.71,19.81,8.93,8.33,17.95,16.56,26.98,24.79,12.08,11.01,24.18,21.99,36.27,32.99,16.09,14.65,32.15,29.32,48.17,44.04,4.63,4.25,9.25,8.5,13.87,12.76,3.85,3.54,10.39,4.09,14.14,0,3.54-3.86,4.11-10.36,0-14.14h0Z"/>
    </g>
    <g>
      <path class="cls-27" d="M2343.49,818.45c202.44,183.85,129.81,107.07,302.14,319.41"/>
      <path class="cls-19" d="M2336.42,825.52c17.32,15.73,34.67,31.41,52.07,47.05,12.96,11.65,25.94,23.28,38.91,34.92,9.77,8.77,19.55,17.54,29.25,26.39,7.42,6.76,14.8,13.57,22.04,20.52,6.15,5.89,12.2,11.89,18.08,18.04s11.29,12.11,16.74,18.35c6.31,7.23,12.47,14.6,18.56,22.01,7.73,9.41,15.37,18.9,23,28.4,10.24,12.76,20.46,25.53,30.69,38.29,13.57,16.92,27.17,33.81,40.82,50.67,3.99,4.92,7.97,9.85,11.97,14.77,1.52,1.87,4.77,2.93,7.07,2.93,2.45,0,5.38-1.09,7.07-2.93s3.05-4.41,2.93-7.07c-.13-2.8-1.17-4.9-2.93-7.07-14.74-18.16-29.43-36.36-44.08-54.6-10.91-13.59-21.8-27.19-32.7-40.79-8.21-10.25-16.43-20.49-24.72-30.67-6.34-7.78-12.73-15.53-19.26-23.15-5.54-6.47-11.19-12.84-17.01-19.06s-11.47-11.95-17.39-17.73c-6.87-6.7-13.88-13.26-20.95-19.76-8.97-8.25-18.02-16.4-27.08-24.54-12.17-10.93-24.36-21.84-36.53-32.77-16.14-14.49-32.25-29.01-48.33-43.57-4.7-4.25-9.39-8.51-14.08-12.77-3.87-3.52-10.37-4.11-14.14,0-3.52,3.83-4.14,10.39,0,14.14h0Z"/>
    </g>
    <g>
      <path class="cls-21" d="M2237.46,1154.88c-69.48,264.49-34.96,164.6-143.62,415.55"/>
      <path class="cls-19" d="M2227.82,1152.22c-5.91,22.49-11.76,44.99-17.55,67.51-4.37,16.99-8.71,33.99-13.07,50.98-3.24,12.65-6.48,25.3-9.83,37.92-2.59,9.77-5.23,19.53-8.06,29.23-2.37,8.12-4.87,16.21-7.59,24.22s-5.54,15.69-8.57,23.45c-1.65,4.23-3.35,8.44-5.07,12.64-.92,2.24-1.85,4.47-2.78,6.7-.23,.55-.46,1.11-.7,1.66-.12,.28-.24,.56-.35,.84-.5,1.18,1.14-2.69,.47-1.12-.51,1.2-1.02,2.4-1.52,3.59-4.8,11.27-9.71,22.5-14.64,33.72-6.53,14.87-13.1,29.74-19.64,44.61-8.78,19.96-17.52,39.94-26.21,59.94-2.5,5.76-5,11.51-7.49,17.27-1.11,2.56-1.78,4.89-1.01,7.71,.64,2.32,2.43,4.83,4.6,5.98,4.31,2.28,11.46,1.54,13.68-3.59,9.28-21.43,18.61-42.83,28-64.22,7.04-16.04,14.11-32.07,21.17-48.1,5.28-11.99,10.55-23.97,15.73-36,4.28-9.93,8.5-19.89,12.53-29.93,3.17-7.89,6.21-15.84,9.04-23.86,2.77-7.85,5.33-15.77,7.74-23.74,2.76-9.16,5.33-18.38,7.82-27.62,3.18-11.81,6.24-23.66,9.29-35.51,4.06-15.8,8.09-31.61,12.15-47.42,5.42-21.12,10.88-42.23,16.39-63.33,1.59-6.07,3.18-12.14,4.77-18.21,1.33-5.05-1.68-11.09-6.98-12.3s-10.88,1.57-12.3,6.98h0Z"/>
    </g>
    <g>
      <path class="cls-20" d="M1916.29,1222.83c-270.71,38.74-165.25,31.74-438.7,29.11"/>
      <path class="cls-24" d="M1913.63,1213.19c-40.49,5.8-80.95,11.83-121.4,17.87-12.9,1.93-25.79,3.85-38.7,5.67-2.71,.38-5.42,.76-8.14,1.13-.57,.08-1.13,.15-1.7,.23-.34,.05-.67,.09-1.01,.14-1.59,.22,2.91-.39,1.32-.18-1.31,.17-2.62,.35-3.93,.52-4.69,.61-9.38,1.2-14.08,1.74-16.65,1.92-33.34,3.16-50.09,3.59-21.73,.57-43.49,.2-65.22-.13-37.93-.56-75.86-1.21-113.79-1.63-6.43-.07-12.87-.14-19.3-.2-5.23-.05-10.24,4.64-10,10s4.39,9.95,10,10c40.9,.39,81.8,1.03,122.7,1.67,23.18,.36,46.38,.83,69.56,.42,16.75-.3,33.47-1.28,50.13-3.06,22.5-2.4,44.91-5.78,67.29-9.1,37.52-5.57,75.03-11.22,112.57-16.65,6.37-.92,12.74-1.84,19.11-2.75,2.3-.33,4.86-2.69,5.98-4.6,1.25-2.14,1.79-5.3,1.01-7.71s-2.28-4.75-4.6-5.98c-2.54-1.34-4.89-1.41-7.71-1.01h0Z"/>
    </g>
    <g>
      <path class="cls-31" d="M2131.42,580.25c269-49.22,163.89-38.13,437.24-46.13"/>
      <path class="cls-19" d="M2134.08,589.89c40.15-7.35,80.25-14.93,120.35-22.52,22.76-4.31,45.52-8.72,68.41-12.28,4.26-.66,8.52-1.28,12.79-1.87,1.44-.2-3.03,.4-1.58,.21,.27-.04,.54-.07,.8-.11,.49-.06,.98-.13,1.47-.19,1.1-.14,2.21-.28,3.31-.42,2.01-.25,4.02-.48,6.04-.71,8.26-.92,16.55-1.62,24.85-2.16,21.63-1.41,43.31-1.88,64.98-2.4,38.01-.91,76.02-1.74,114.03-2.8,6.38-.18,12.76-.36,19.14-.55,5.22-.15,10.25-4.49,10-10s-4.4-10.16-10-10c-40.96,1.2-81.92,2.15-122.88,3.1-23.09,.53-46.21,.97-69.28,2.28-17.58,.99-35.06,2.79-52.48,5.33-21.54,3.14-42.94,7.23-64.32,11.25-37.37,7.04-74.71,14.16-112.11,21.06-6.28,1.16-12.55,2.31-18.83,3.46-5.16,.94-8.55,7.48-6.98,12.3,1.79,5.53,6.78,8,12.3,6.98h0Z"/>
    </g>
  </g>
  <g id="Layer_1" data-name="Layer 1">
    <circle class="cls-5" cx="2015.04" cy="206.53" r="206.03"/>
    <circle class="cls-3" cx="2652.98" cy="534.12" r="206.03"/>
    <circle class="cls-10" cx="2639.18" cy="1184.19" r="206.03"/>
    <circle class="cls-4" cx="2015.04" cy="1623.78" r="206.03"/>
    <circle class="cls-7" cx="1377.11" cy="1184.19" r="206.03"/>
    <circle class="cls-17" cx="1377.11" cy="534.12" r="206.03"/>
    <circle class="cls-2" cx="1802.98" cy="698.78" r="106.03"/>
    <circle class="cls-9" cx="2101.25" cy="592.74" r="106.03"/>
    <circle class="cls-15" cx="1763.01" cy="991.95" r="106.03"/>
    <circle class="cls-1" cx="1950.39" cy="1216.02" r="106.03"/>
    <circle class="cls-16" cx="2327.11" cy="824.64" r="106.03"/>
    <circle class="cls-13" cx="2237.46" cy="1132.47" r="106.03"/>
  </g>
  <g id="Layer_6" data-name="Layer 6">
    <text class="cls-28" transform="translate(0 2451.81)"><tspan class="cls-29" x="0" y="0">C</tspan><tspan x="347.5" y="0">ARE</tspan><tspan class="cls-25" x="1398.49" y="0">C</tspan><tspan x="1739.99" y="0">ONNECT</tspan></text>
    <text class="cls-23" transform="translate(1259.87 2735.14)"><tspan x="0" y="0">SOFT</tspan><tspan class="cls-22" x="633.74" y="0">W</tspan><tspan x="878.74" y="0">ARE</tspan></text>
  </g>
</svg>